HIERARCHY
ROOT SpineBase
{
  OFFSET 0.000000 0.000000 0.000000
  CHANNELS 6 Xposition Yposition Zposition Zrotation Xrotation Yrotation
  JOINT SpineMid
  {
    OFFSET 0.000000 31.533025 0.000000
    CHANNELS 3 Zrotation Xrotation Yrotation
    JOINT SpineShoulder
    {
      OFFSET -0.385380 23.327007 -0.535591
      CHANNELS 3 Zrotation Xrotation Yrotation
      JOINT Neck
      {
        OFFSET -0.085191 7.702220 -0.458322
        CHANNELS 3 Zrotation Xrotation Yrotation
        JOINT Head
        {
          OFFSET -5.502628 12.579560 2.287592
          CHANNELS 3 Zrotation Xrotation Yrotation
          End Site
          {
            OFFSET 0 0 0
          }
        }
      }
      JOINT ShoulderLeft
      {
        OFFSET -12.752558 -2.151519 11.778724
        CHANNELS 3 Zrotation Xrotation Yrotation
        JOINT ElbowLeft
        {
          OFFSET -6.184945 -27.446498 4.024389
          CHANNELS 3 Zrotation Xrotation Yrotation
          JOINT WristLeft
          {
            OFFSET -5.664862 -27.335778 3.692164
            CHANNELS 3 Zrotation Xrotation Yrotation
            JOINT HandLeft
            {
              OFFSET -2.090685 -6.501121 1.291015
              CHANNELS 3 Zrotation Xrotation Yrotation
              JOINT HandTipLeft
              {
                OFFSET -1.521271 -7.369267 1.037080
                CHANNELS 3 Zrotation Xrotation Yrotation
                End Site
                {
                  OFFSET 0 0 0
                }
              }
              JOINT ThumbLeft
              {
                OFFSET 2.855815 -0.620503 0.930377
                CHANNELS 3 Zrotation Xrotation Yrotation
                End Site
                {
                  OFFSET 0 0 0
                }
              }
            }
          }
        }
      }
      JOINT ShoulderRight
      {
        OFFSET 9.971005 -4.663755 -11.386702
        CHANNELS 3 Zrotation Xrotation Yrotation
        JOINT ElbowRight
        {
          OFFSET 1.766545 -27.620129 -6.558044
          CHANNELS 3 Zrotation Xrotation Yrotation
          JOINT WristRight
          {
            OFFSET -11.172468 -17.871469 -2.234594
            CHANNELS 3 Zrotation Xrotation Yrotation
            JOINT HandRight
            {
              OFFSET -1.907695 -2.004446 3.982157
              CHANNELS 3 Zrotation Xrotation Yrotation
              JOINT HandTipRight
              {
                OFFSET -4.111074 -7.882071 -2.660311
                CHANNELS 3 Zrotation Xrotation Yrotation
                End Site
                {
                  OFFSET 0 0 0
                }
              }
              JOINT ThumbRight
              {
                OFFSET -5.288177 4.906633 5.005965
                CHANNELS 3 Zrotation Xrotation Yrotation
                End Site
                {
                  OFFSET 0 0 0
                }
              }
            }
          }
        }
      }
    }
  }
  JOINT HipLeft
  {
    OFFSET -5.055934 0.084621 1.475116
    CHANNELS 3 Zrotation Xrotation Yrotation
    JOINT KneeLeft
    {
      OFFSET -3.577034 -30.936678 -16.688210
      CHANNELS 3 Zrotation Xrotation Yrotation
      JOINT AnkleLeft
      {
        OFFSET 12.325095 -36.083137 23.424160
        CHANNELS 3 Zrotation Xrotation Yrotation
        JOINT FootLeft
        {
          OFFSET -3.722589 -6.727207 -5.938751
          CHANNELS 3 Zrotation Xrotation Yrotation
          End Site
          {
            OFFSET 0 0 0
          }
        }
      }
    }
  }
  JOINT HipRight
  {
    OFFSET 5.582811 1.485843 -8.372156
    CHANNELS 3 Zrotation Xrotation Yrotation
    JOINT KneeRight
    {
      OFFSET 3.196516 -35.225838 -9.733823
      CHANNELS 3 Zrotation Xrotation Yrotation
      JOINT AnkleRight
      {
        OFFSET 13.553955 -33.672294 8.957011
        CHANNELS 3 Zrotation Xrotation Yrotation
        JOINT FootRight
        {
          OFFSET 0.771311 -7.766631 -6.691619
          CHANNELS 3 Zrotation Xrotation Yrotation
          End Site
          {
            OFFSET 0 0 0
          }
        }
      }
    }
  }
}
MOTION
Frames: 10
Frame Time: 0.033333
-36.603116 86.498194 329.048605 2.030238 2.288310 50.206856 -1.463872 0.426877 -50.210812 -1.134259 0.043145 -0.061018 0.932663 -0.812985 0.209750 0.000000 0.000000 0.000000 0.968519 23.173738 -5.848320 -11.022515 49.405282 -10.761128 16.097506 -52.357061 13.449189 12.419560 8.359342 5.689109 0.000000 0.000000 0.000000 0.000000 0.000000 0.000000 -47.286629 26.663836 24.183129 -33.088849 -10.279178 -27.586838 68.708002 -4.477793 -10.764197 -34.256635 -10.145582 18.285479 0.000000 0.000000 0.000000 0.000000 0.000000 0.000000 -20.131791 -23.066588 -54.932053 -22.326864 43.254337 11.360758 14.785759 -19.711111 -0.434118 0.000000 0.000000 0.000000 -0.897102 -10.030361 -53.045941 -17.728271 9.930000 4.776403 3.421178 -8.289807 3.106903 0.000000 0.000000 0.000000
-36.399569 86.717065 328.769092 1.825785 2.034978 49.047986 -1.475212 0.423187 -49.052302 -0.677125 -0.126384 -0.035769 -2.141195 -2.309974 -0.199328 0.000000 0.000000 0.000000 -0.180380 27.204784 -6.715836 -9.727802 43.069747 -9.439645 14.907289 -59.870292 13.867360 24.922856 14.788805 3.732927 0.000000 0.000000 0.000000 0.000000 0.000000 0.000000 -50.353282 24.488164 24.797614 -29.435606 -10.118080 -26.190580 75.041050 1.391106 -3.053356 -42.487895 -13.791611 8.537652 0.000000 0.000000 0.000000 0.000000 0.000000 0.000000 -19.835959 -23.785272 -53.804347 -22.642554 43.548787 11.334805 14.965599 -19.336231 -0.147605 0.000000 0.000000 0.000000 -0.027152 -9.815306 -51.812663 -17.634390 9.373302 4.586193 0.951991 -6.591567 5.142257 0.000000 0.000000 0.000000
-36.284618 86.995737 328.535388 1.382698 1.723786 47.089989 -1.616115 0.448660 -47.102455 0.046171 -0.845205 -0.012561 -3.987648 -2.843658 -0.630149 0.000000 0.000000 0.000000 -1.324632 31.338164 -7.339123 -3.948499 33.633078 -6.808446 -27.273081 -67.942075 -22.395503 36.867727 14.899064 0.440982 0.000000 0.000000 0.000000 0.000000 0.000000 0.000000 -53.120499 22.585543 25.662912 -25.506657 -9.303007 -24.559702 75.883517 -2.972539 5.681796 -42.145044 -4.348449 4.732717 0.000000 0.000000 0.000000 0.000000 0.000000 0.000000 -18.767995 -24.998845 -51.998619 -23.325749 43.629405 11.500976 15.037148 -18.880059 0.218577 0.000000 0.000000 0.000000 0.851936 -9.962710 -49.819620 -17.702788 9.339822 4.574326 -0.639879 -5.684377 6.530354 0.000000 0.000000 0.000000
-35.938702 87.180693 327.934028 0.910733 1.483362 43.829702 -1.562895 0.388825 -43.847800 0.486077 -0.681221 0.002795 -6.287801 -4.373614 -1.042067 0.000000 0.000000 0.000000 -2.278512 31.915655 -7.331373 6.408892 22.844916 -1.745266 -51.595445 -57.400888 -36.169555 43.619162 10.476436 -0.153025 0.000000 0.000000 0.000000 0.000000 0.000000 0.000000 -54.116986 21.024985 25.401775 -26.451296 -8.838521 -23.885902 77.315876 -7.027132 6.853660 -47.162227 -7.751086 8.663469 0.000000 0.000000 0.000000 0.000000 0.000000 0.000000 -17.412307 -26.936824 -48.869579 -24.121356 44.076126 11.772925 14.946913 -18.419345 0.746316 0.000000 0.000000 0.000000 1.297747 -10.186196 -46.499788 -17.519844 9.920754 4.639319 -1.402976 -5.614385 7.259638 0.000000 0.000000 0.000000
-35.486464 87.231069 327.184497 0.547390 1.389050 39.775478 -1.569959 0.366221 -39.800627 -0.206815 -0.366396 -0.057388 -7.147937 -5.449312 -1.144995 0.000000 0.000000 0.000000 -2.642997 27.727877 -6.187479 22.880080 15.307740 4.890544 -49.753683 -39.948914 -22.940251 39.021079 8.344209 1.740487 0.000000 0.000000 0.000000 0.000000 0.000000 0.000000 -52.624024 20.889255 25.069090 -30.324786 -9.459685 -24.391242 76.168721 -16.295090 5.567995 -53.654399 -6.710365 18.968986 0.000000 0.000000 0.000000 0.000000 0.000000 0.000000 -15.671166 -29.247619 -44.873727 -25.124506 44.654825 12.250743 15.456178 -18.514772 1.236503 0.000000 0.000000 0.000000 1.285968 -10.494255 -42.371580 -17.165523 10.948974 4.759081 -1.262531 -6.197075 7.271933 0.000000 0.000000 0.000000
-34.965593 87.185288 326.297462 0.017547 1.264588 35.841019 -1.642230 0.383158 -35.877982 -0.229195 -0.352175 -0.083788 -7.296543 -5.581405 -1.077542 0.000000 0.000000 0.000000 -0.539803 25.581492 -5.798064 35.445091 7.450391 11.849100 -49.290271 -26.246918 -13.925154 39.554460 13.287389 -1.573744 0.000000 0.000000 0.000000 0.000000 0.000000 0.000000 -49.900293 21.489394 24.367690 -36.401354 -9.501823 -24.800120 70.422002 -25.992183 -3.041139 -51.859748 -9.616041 32.161478 0.000000 0.000000 0.000000 0.000000 0.000000 0.000000 -13.569479 -31.539838 -40.884697 -26.196981 45.192639 12.751435 15.577174 -17.951817 1.595877 0.000000 0.000000 0.000000 1.170031 -11.046506 -38.367934 -16.749663 12.211557 4.886700 0.027822 -7.122283 6.467904 0.000000 0.000000 0.000000
-34.454830 87.173512 325.462716 -0.662308 1.081151 33.222740 -1.815815 0.426943 -33.278112 -0.246551 -0.386111 -0.119610 -5.892398 -4.615527 -0.649414 0.000000 0.000000 0.000000 -1.207654 23.306377 -5.057619 46.818765 4.704863 16.761187 -35.887491 -22.648606 -1.142658 24.921663 15.777670 -8.713060 0.000000 0.000000 0.000000 0.000000 0.000000 0.000000 -44.066106 22.796516 22.588362 -42.854950 -7.942957 -24.265193 56.599647 -34.592843 -18.706655 -41.083020 -7.783023 46.318054 0.000000 0.000000 0.000000 0.000000 0.000000 0.000000 -11.646999 -33.184909 -38.192798 -27.180750 45.406434 13.126343 15.745449 -17.735220 2.216886 0.000000 0.000000 0.000000 1.110959 -11.777548 -35.725262 -16.383595 13.420745 5.029032 1.683936 -9.106999 5.221161 0.000000 0.000000 0.000000
-33.929965 87.037456 324.668059 -1.439765 0.945256 32.161830 -1.925718 0.474609 -32.236372 -0.261721 -0.404524 -0.156717 -4.020122 -4.273146 -0.607761 0.000000 0.000000 0.000000 -2.494922 20.810588 -4.337375 53.600329 7.100322 16.384054 -6.748509 -17.510279 13.420258 -5.602783 8.866300 -9.195507 0.000000 0.000000 0.000000 0.000000 0.000000 0.000000 -35.650563 24.969008 19.799780 -50.521877 -6.240913 -23.760939 41.914637 -32.424756 -38.681918 -30.950205 -13.585752 59.967318 0.000000 0.000000 0.000000 0.000000 0.000000 0.000000 -10.392533 -34.133768 -37.147019 -27.804009 45.176209 13.140027 15.769702 -17.088452 2.737890 0.000000 0.000000 0.000000 0.951465 -12.694402 -34.697820 -16.138165 14.467866 5.139474 4.306851 -11.786748 3.248530 0.000000 0.000000 0.000000
-33.466861 86.765831 323.923258 -2.325011 0.631211 32.154002 -1.999708 0.520652 -32.254209 -0.258589 -0.398875 -0.192804 -1.836652 -3.834780 -0.639268 0.000000 0.000000 0.000000 -3.439870 19.724322 -3.919802 55.924914 13.108461 12.205644 10.224216 -26.493130 33.773947 -11.081715 22.430580 -20.414617 0.000000 0.000000 0.000000 0.000000 0.000000 0.000000 -23.136838 26.541333 14.734916 -56.419099 -4.093756 -21.607812 32.394748 -21.285520 -54.122597 -20.894687 -12.989495 68.997234 0.000000 0.000000 0.000000 0.000000 0.000000 0.000000 -9.453181 -34.464255 -37.224039 -28.146199 44.574247 12.876196 15.598317 -16.985674 3.798179 0.000000 0.000000 0.000000 1.089021 -13.562242 -34.789568 -16.150483 15.199543 5.234202 7.729003 -15.107433 0.690189 0.000000 0.000000 0.000000
-33.063069 86.496778 322.902849 -3.157907 0.525856 32.217306 -1.850754 0.583819 -32.330795 -0.304380 -0.494412 -0.231096 -1.931368 -5.653261 -1.436569 0.000000 0.000000 0.000000 -3.191000 19.380362 -3.777533 55.266510 20.338798 6.632713 12.965485 -39.741111 46.299727 -5.473169 27.255266 -23.857752 0.000000 0.000000 0.000000 0.000000 0.000000 0.000000 -8.964861 25.635569 8.270768 -58.435738 -0.592328 -17.919491 27.011170 -11.367865 -62.118097 -5.213302 -11.942799 74.828544 0.000000 0.000000 0.000000 0.000000 0.000000 0.000000 -9.155959 -35.168173 -37.426254 -28.232896 44.361926 12.522629 15.588279 -17.324449 5.058028 0.000000 0.000000 0.000000 1.236970 -14.853443 -35.043290 -16.415727 15.936682 5.448483 5.172651 -11.708958 3.196706 0.000000 0.000000 0.000000
